<?xml version="1.0" encoding="UTF-8"?>
<svg id="Layer_1" data-name="Layer 1" xmlns="http://www.w3.org/2000/svg" version="1.1" viewBox="0 0 1200 1200">
  <defs>
    <style>
      .cls-1 {
        fill: #FC0202;
        stroke-width: 0px;
      }
    </style>
  </defs>
  <g>
    <path class="cls-1" d="M211.5,582.5c-4.3-4.1-8.5-8-12.7-12-32.3-31.4-25.1-79.5,17.4-94.2,27.4-9.5,58.3-12.5,87.6-12.5,25.5,0,42.2-7.7,53.9-29.4,1.8-3.4,6.9-7.1,10.6-7.2,17.8-.8,35.6-.3,54.8-.3,2.5,34.9-21.6,46-41.7,54.3,6.3,19.1,15.9,36.2,17,53.8,2.2,32.7-23.3,57.1-61.6,62.2-21.2,2.8-43,1.6-64.3,4.2-7.4.9-19.1,6.8-20,11.9-2.2,12.6,10,14.5,19.6,14.7,26.9.6,53.8.2,80.7.4,39.5.3,65.8,19.7,70.8,52.3,6.1,39.9-11.3,69.9-49.3,82.4-12.3,4-25.6,6.3-38.5,6.6-39.4.8-78.9.4-118.4.3-28.3,0-48.5-13.3-55.7-36.3-7-22.3.5-40.6,23.7-58.5,2.3-1.8,4.3-3.9,6.4-5.8-29.9-38.3-26.8-52,19.7-86.6ZM289.8,683.3c-10.8,0-21.5,0-32.3,0-13.4,0-22.1,6.6-23.1,19.9-.9,12.2,6.1,22.1,18.2,22.8,24.9,1.4,50.1,1.4,75-.1,12-.7,19-10.6,17.9-22.9-1.1-12.2-8.9-19.3-21.7-19.6-11.4-.2-22.7,0-34.1,0ZM290,559.8c21.1-.2,32.6-10.6,32.3-29.5-.3-18.3-13-29-33.6-28.4-19.2.6-31.8,12.1-32,29.1-.1,18.2,12.3,28.9,33.3,28.8Z"/>
    <path class="cls-1" d="M853.4,486.4c0-30,.8-56.8-.3-83.5-.6-13.9,4.7-17.7,17.6-17.1,16.7.8,33.5.4,50.2.2,8.7,0,12.9,2.9,12.9,12.5-.2,93.8-.1,187.6-.1,284.6-20.2,0-39.6.3-59-.4-2.5,0-5.7-5-7.1-8.3-2.4-6-3.6-12.5-5.6-19.7-2.8,1.3-5.4,1.6-6.7,3.2-25.4,30.7-58.4,35-94.2,25.4-34.8-9.3-52.5-35.9-56.7-69.1-3.4-27.4-4.2-56.5,1.5-83.3,14.1-66.4,82.1-90.1,137.9-50.6,1.9,1.3,3.9,2.5,9.6,6.1ZM779.8,574.6s0,0,0,0c0,7.2-.6,14.4.1,21.4,2.3,20.9,15,33.2,34.7,34.2,18.7.9,35.4-11.1,37.9-30.8,2.1-16.3,2.1-33.4-.3-49.7-3-19.9-19.6-31.2-38.6-29.8-19,1.4-31,13-33.6,33.3-.9,7-.1,14.3-.1,21.4Z"/>
    <path class="cls-1" d="M437.5,466.6c18.3,0,35-.7,51.6.5,4.2.3,9.5,5.4,11.7,9.7,2.8,5.4,3,12.1,4.9,21.5,5.1-6.3,8.1-10.3,11.3-14.2,16.2-19.6,37.9-24,61.6-20.5,4,.6,9.8,7.4,10,11.6,1.1,18.3.5,36.8.5,57.5-8.2,0-14.6,0-20.9,0-36.5.4-52.8,15.6-53.9,52.1-.9,27.5-.2,55.1-.3,82.6,0,4.6-.7,9.3-1.2,14.9h-75.1v-215.6Z"/>
    <path class="cls-1" d="M599.9,467.5h77.2v214.3h-77.2v-214.3Z"/>
    <path class="cls-1" d="M965.9,603.9h81.4v78.1h-81.4v-78.1Z"/>
    <path class="cls-1" d="M638.1,438.6c-1.2,0-2.4,0-3.6,0-38.8,0-42.1-3.8-35.6-42.7.6-3.7,6.1-9.1,9.6-9.3,20.3-.9,40.6-.8,60.9,0,3.2.1,8.3,6.2,8.8,10,1.3,9.4,0,19.1.6,28.6.7,10.5-4.1,13.8-13.8,13.4-8.9-.4-17.9,0-26.9,0Z"/>
  </g>
  <g>
    <path class="cls-1" d="M824.8,762c-5.6,4.7-13.6,7-24,7h-19.9v34.4h-19.9v-95.7h41.1c9.5,0,17,2.5,22.7,7.4,5.6,4.9,8.4,12.6,8.4,22.9s-2.8,19.3-8.4,24ZM809.5,727.5c-2.5-2.1-6.1-3.2-10.6-3.2h-18v28.2h18c4.6,0,8.1-1.1,10.6-3.4s3.8-5.9,3.8-10.9-1.3-8.5-3.8-10.7Z"/>
    <path class="cls-1" d="M867.5,803.5h-19.9v-95.7h19.9v95.7Z"/>
    <path class="cls-1" d="M895.4,717.7c7.7-7.9,17.5-11.8,29.4-11.8s27.6,5.3,34.9,15.8c4.1,5.9,6.3,11.9,6.6,17.9h-20c-1.3-4.6-2.9-8.1-4.9-10.4-3.6-4.2-8.8-6.2-15.8-6.2s-12.7,2.9-16.9,8.8c-4.1,5.9-6.2,14.2-6.2,24.9s2.2,18.8,6.5,24.1c4.3,5.3,9.9,8,16.5,8s12.1-2.3,15.7-6.9c2-2.5,3.6-6.2,5-11.1h19.9c-1.7,10.4-6.1,18.9-13.1,25.5-7,6.5-16.1,9.8-27.1,9.8s-24.3-4.4-32.1-13.2c-7.8-8.9-11.7-21-11.7-36.5s4.4-29.6,13.3-38.6Z"/>
    <path class="cls-1" d="M996.7,773.9c.6,4.4,1.8,7.6,3.6,9.8,3.3,3.9,9,5.9,17,5.9s8.7-.5,11.7-1.6c5.7-2,8.6-5.7,8.6-11.1s-1.4-5.6-4.2-7.3c-2.8-1.7-7.2-3.2-13.3-4.5l-10.4-2.3c-10.2-2.3-17.2-4.7-21-7.3-6.5-4.4-9.7-11.3-9.7-20.7s3.2-15.7,9.5-21.4c6.3-5.7,15.6-8.5,27.8-8.5s18.9,2.7,26.1,8c7.2,5.3,11,13.1,11.3,23.3h-19.2c-.4-5.8-2.9-9.8-7.7-12.3-3.2-1.6-7.2-2.4-11.9-2.4s-9.5,1-12.7,3.1-4.7,5-4.7,8.7,1.6,6,4.7,7.7c2,1.1,6.2,2.4,12.7,4l16.8,4c7.4,1.7,12.9,4,16.6,6.9,5.7,4.5,8.6,11,8.6,19.5s-3.4,16-10.1,21.8-16.3,8.7-28.7,8.7-22.5-2.8-29.7-8.5c-7.2-5.7-10.8-13.5-10.8-23.5h19.1Z"/>
  </g>
</svg>